# xmcd
#
# Track frame offsets: 
#        150
#        34129
#        60428
#        91662
#        105473
#        131362
#        155470
#        169085
#        195258
#        222205
#        248116
#        269599
#        283925
#        310147
#
# Disc length: 4321 seconds
#
# Revision: 0
# Processed by: cddbd v1.5.2PL0 Copyright (c) Steve Scherf et al.
# Submitted via: ExactAudioCopy v0.95b4
#
DISCID=ba10df0e
DTITLE=Various Artist - Poolposition 2005-06
DYEAR=2005
DGENRE=
TTITLE0=Rosendahl - To you (original mix)
TTITLE1=Mylo - In my arms (tocadisco´s zwischen den stühlen mix)
TTITLE2=Age Pee - When the rain begins to fall (axel konrad mix)
TTITLE3=John Marks - Don´t stop (radio edit)
TTITLE4=John Marks - Don´t stop (club mix)
TTITLE5=Gabry Ponte feat. Little Tony - Figli di Pitagora (extended ve
TTITLE5=rsion)
TTITLE6=John Marks - Update (radio edit)
TTITLE7=John Marks - Update (club mix)
TTITLE8=Karma - Everytime you leave (neno dj loco extended rmx)
TTITLE9=Resource - 18 (The Russian Track) (Vocal Club Mix)
TTITLE10=Loona - Oye el boom (extended mix)
TTITLE11=Loco Loco - Mosquito (Attencion!!!) (radio mix)
TTITLE12=Papi Sanchez - Enamorame (Aston Martinez and Mario Held Club Mi
TTITLE12=x)
TTITLE13=Papi Sanchez - Enamorame (Caramba Crew Remix)
EXTD=
EXTT0=
EXTT1=
EXTT2=
EXTT3=
EXTT4=
EXTT5=
EXTT6=
EXTT7=
EXTT8=
EXTT9=
EXTT10=
EXTT11=
EXTT12=
EXTT13=
PLAYORDER=
